<svg width="16" height="17" viewBox="0 0 16 17" fill="none" xmlns="http://www.w3.org/2000/svg">
<path d="M13.359 11.9089C15.06 10.3909 16 8.6709 16 8.6709C16 8.6709 13 3.1709 7.99996 3.1709C7.03947 3.17341 6.08977 3.37356 5.20996 3.7589L5.97996 4.5299C6.62769 4.29514 7.31101 4.1737 7.99996 4.1709C10.12 4.1709 11.879 5.3389 13.168 6.6279C13.789 7.25098 14.3452 7.93549 14.828 8.6709C14.7706 8.75757 14.7056 8.85357 14.633 8.9589C14.298 9.4389 13.803 10.0789 13.168 10.7139C13.0033 10.8792 12.831 11.0412 12.651 11.1999L13.359 11.9089Z" fill="#235744"/>
<path d="M11.2969 9.84701C11.52 9.22285 11.5613 8.54816 11.416 7.90143C11.2707 7.2547 10.9448 6.66253 10.476 6.19383C10.0073 5.72512 9.41517 5.39915 8.76845 5.25384C8.12172 5.10853 7.44702 5.14985 6.82287 5.37301L7.64587 6.19601C8.03018 6.141 8.42202 6.17625 8.79034 6.29897C9.15866 6.42169 9.49334 6.6285 9.76786 6.90302C10.0424 7.17754 10.2492 7.51222 10.3719 7.88054C10.4946 8.24886 10.5299 8.6407 10.4749 9.02501L11.2969 9.84701ZM8.35387 11.146L9.17587 11.968C8.55171 12.1912 7.87701 12.2325 7.23029 12.0872C6.58356 11.9419 5.99139 11.6159 5.52269 11.1472C5.05398 10.6785 4.72801 10.0863 4.5827 9.43959C4.43738 8.79286 4.47871 8.11817 4.70187 7.49401L5.52487 8.31701C5.46986 8.70132 5.50511 9.09316 5.62783 9.46148C5.75055 9.8298 5.95736 10.1645 6.23188 10.439C6.5064 10.7135 6.84107 10.9203 7.2094 11.043C7.57772 11.1658 7.96956 11.201 8.35387 11.146Z" fill="#235744"/>
<path d="M3.35 6.14089C3.17 6.30089 2.99733 6.46323 2.832 6.62789C2.21097 7.25097 1.65478 7.93548 1.172 8.67089L1.367 8.95889C1.702 9.43889 2.197 10.0789 2.832 10.7139C4.121 12.0029 5.881 13.1709 8 13.1709C8.716 13.1709 9.39 13.0379 10.02 12.8109L10.79 13.5829C9.91019 13.9682 8.96049 14.1684 8 14.1709C3 14.1709 0 8.67089 0 8.67089C0 8.67089 0.939 6.94989 2.641 5.43289L3.349 6.14189L3.35 6.14089ZM13.646 15.0249L1.646 3.02489L2.354 2.31689L14.354 14.3169L13.646 15.0249Z" fill="#235744"/>
</svg>
