<svg width="16" height="17" viewBox="0 0 16 17" fill="none" xmlns="http://www.w3.org/2000/svg">
<path d="M15.8422 8.62402C15.8422 4.20565 12.3312 0.623779 8.00021 0.623779C3.66923 0.623779 0.158203 4.20565 0.158203 8.62402C0.158203 12.3758 2.69023 15.5241 6.10589 16.3887V11.0689H4.48887V8.62402H6.10589V7.57055C6.10589 4.84759 7.31388 3.58547 9.93436 3.58547C10.4312 3.58547 11.2885 3.68499 11.6392 3.78419V6.00026C11.4541 5.98042 11.1326 5.9705 10.7333 5.9705C9.44753 5.9705 8.95066 6.46747 8.95066 7.75935V8.62402H11.5122L11.0721 11.0689H8.95066V16.5657C12.8337 16.0873 15.8425 12.7144 15.8425 8.62402H15.8422Z" fill="#0866FF"/>
</svg>
