<svg width="16" height="17" viewBox="0 0 16 17" fill="none" xmlns="http://www.w3.org/2000/svg">
<g clip-path="url(#clip0_4091_9)">
<path d="M8 7.16943V10.2677H12.2204C12.0351 11.2641 11.4789 12.1078 10.6449 12.6751L13.1899 14.6897C14.6728 13.2933 15.5283 11.2424 15.5283 8.80593C15.5283 8.23865 15.4784 7.69312 15.3857 7.16952L8 7.16943Z" fill="#4285F4"/>
<path d="M3.60535 10.1467L3.03134 10.595L0.999512 12.2096C2.28987 14.8205 4.93457 16.6242 8.00006 16.6242C10.1173 16.6242 11.8925 15.9115 13.19 14.6897L10.6449 12.675C9.94627 13.1551 9.05512 13.446 8.00006 13.446C5.96115 13.446 4.22883 12.0423 3.60855 10.1513L3.60535 10.1467Z" fill="#34A853"/>
<path d="M0.999375 5.03857C0.464722 6.11493 0.158203 7.32952 0.158203 8.62409C0.158203 9.91865 0.464722 11.1333 0.999375 12.2096C0.999375 12.2168 3.60867 10.1441 3.60867 10.1441C3.45183 9.66407 3.35913 9.155 3.35913 8.624C3.35913 8.09301 3.45183 7.58394 3.60867 7.10392L0.999375 5.03857Z" fill="#FBBC05"/>
<path d="M8.00022 3.80933C9.15515 3.80933 10.1817 4.2166 11.0016 5.00209L13.2472 2.71114C11.8856 1.41658 10.1176 0.623779 8.00022 0.623779C4.93473 0.623779 2.28987 2.42019 0.999512 5.03846L3.60873 7.10398C4.22892 5.213 5.96131 3.80933 8.00022 3.80933Z" fill="#EA4335"/>
</g>
<defs>
<clipPath id="clip0_4091_9">
<rect width="15.684" height="16.0005" fill="white" transform="translate(0.158203 0.623779)"/>
</clipPath>
</defs>
</svg>
